<svg width="25" height="25" viewBox="0 0 25 25" fill="none" xmlns="http://www.w3.org/2000/svg">
<path d="M17.0226 2.01611H7.01354C4.24963 2.01611 2.00903 4.25469 2.00903 7.01611V17.0161C2.00903 19.7775 4.24963 22.0161 7.01354 22.0161H17.0226C19.7865 22.0161 22.0271 19.7775 22.0271 17.0161V7.01611C22.0271 4.25469 19.7865 2.01611 17.0226 2.01611Z" stroke="#02897A" stroke-width="2" stroke-linecap="round" stroke-linejoin="round"/>
<path d="M16.0217 11.3862C16.1452 12.2184 16.0029 13.0684 15.615 13.8152C15.2272 14.562 14.6135 15.1676 13.8613 15.5458C13.1091 15.9241 12.2567 16.0558 11.4253 15.9221C10.5939 15.7884 9.82583 15.3963 9.23037 14.8013C8.63491 14.2064 8.24238 13.439 8.10859 12.6084C7.97481 11.7777 8.10659 10.9261 8.48519 10.1745C8.86379 9.42302 9.46994 8.80991 10.2174 8.42241C10.9649 8.03491 11.8156 7.89276 12.6486 8.01617C13.4983 8.14206 14.2849 8.53763 14.8923 9.14448C15.4997 9.75132 15.8957 10.5372 16.0217 11.3862Z" stroke="#02897A" stroke-width="2" stroke-linecap="round" stroke-linejoin="round"/>
<path d="M17.523 6.51611H17.533" stroke="#02897A" stroke-width="2" stroke-linecap="round" stroke-linejoin="round"/>
</svg>
