<svg width="25" height="20" viewBox="0 0 25 20" fill="none" xmlns="http://www.w3.org/2000/svg">
<path d="M23.1289 1.01006C22.1705 1.68553 21.1092 2.20217 19.9861 2.54006C19.3833 1.84757 18.5822 1.35675 17.6911 1.13398C16.8 0.911216 15.8619 0.967251 15.0037 1.29451C14.1455 1.62177 13.4086 2.20446 12.8927 2.96377C12.3768 3.72309 12.1067 4.62239 12.119 5.54006V6.54006C10.3601 6.58562 8.61714 6.19587 7.04546 5.4055C5.47378 4.61513 4.12213 3.44869 3.1109 2.01006C3.1109 2.01006 -0.892703 11.0101 8.11541 15.0101C6.05408 16.408 3.5985 17.109 1.1091 17.0101C10.1172 22.0101 21.1271 17.0101 21.1271 5.51006C21.1262 5.23151 21.0994 4.95365 21.0471 4.68006C22.0686 3.67355 22.7895 2.40277 23.1289 1.01006V1.01006Z" stroke="#02897A" stroke-width="2" stroke-linecap="round" stroke-linejoin="round"/>
</svg>
