<svg width="33" height="30" viewBox="0 0 33 30" fill="none" xmlns="http://www.w3.org/2000/svg">
<path fill-rule="evenodd" clip-rule="evenodd" d="M2.50872 27.567C1.12892 27.567 1.28656e-07 26.4391 1.19284e-07 25.0606L5.97074e-08 16.2976L6.31466 16.2976L6.31466 16.288L10.1101 16.288C11.0885 16.2629 11.9164 15.4107 11.9164 14.4081C11.9164 13.3805 11.0634 12.5283 10.0349 12.5283L5.01744 12.5283L5.01744 12.5298L3.40912e-08 12.5298L1.70406e-08 10.0218C7.66834e-09 8.64329 1.12892 7.51538 2.50872 7.51538L10.0349 7.51538C11.9415 7.51538 13.5722 8.19212 14.9018 9.54561C16.2565 10.874 16.9338 12.5032 16.9338 14.4081C16.9338 16.288 16.2816 17.9172 14.952 19.2456C13.6223 20.574 12.0168 21.2758 10.1352 21.3009L5.01744 21.3009L5.01744 25.0606C5.01744 26.4391 3.88851 27.567 2.50872 27.567Z" fill="#02BC6B"/>
<path fill-rule="evenodd" clip-rule="evenodd" d="M20.096 4.6062C22.8677 7.29591 24.2643 10.6458 24.2643 14.4538C24.2643 18.1978 22.9261 21.5445 20.1973 24.2427L16.3229 20.6006C18.0199 18.9226 18.853 16.9024 18.853 14.4538C18.853 11.9865 17.9949 9.96945 16.2571 8.28303L20.096 4.6062Z" fill="#02897A"/>
<path fill-rule="evenodd" clip-rule="evenodd" d="M26.0279 -2.51649e-08C30.02 3.98225 32.0289 8.91996 32.0289 14.587C32.0289 20.1656 30.101 25.1003 26.1744 29.091L22.4352 25.4408C25.3601 22.468 26.7933 18.8625 26.7933 14.587C26.7933 10.2687 25.3118 6.66621 22.3231 3.68493L26.0279 -2.51649e-08Z" fill="#035B81"/>
<path fill-rule="evenodd" clip-rule="evenodd" d="M0 21.3218L5.01744 21.3218L5.01744 25.0606C5.01744 26.4392 3.88851 27.5671 2.50872 27.5671C1.12892 27.5671 3.47915e-08 26.4392 2.54192e-08 25.0606L0 21.3218Z" fill="#028E37"/>
</svg>
